<svg width="141" height="143" viewBox="0 0 141 143" fill="none" xmlns="http://www.w3.org/2000/svg">
<path d="M111.94 32.9406C108.65 14.6021 91.29 0.52533 70.5 0.52533C55.24 0.52533 41.31 8.14485 33.96 20.2844C15.13 22.5444 0.5 37.5898 0.5 55.4117C0.5 74.9771 17.79 90.9264 39 90.9264H109C126.36 90.9264 140.5 77.8828 140.5 61.8689C140.5 46.759 127.97 34.2966 111.94 32.9406Z" fill="white"/>
<path d="M90.1 97.3836L69.8 118.822L83.8 125.279L67.35 142.584H85.9L106.2 121.146L92.2 114.689L108.65 97.3836H90.1Z" fill="white"/>
<path d="M48.1 97.3836L27.8 118.822L41.8 125.279L25.35 142.584H43.9L64.2 121.146L50.2 114.689L66.65 97.3836H48.1Z" fill="white"/>
</svg>
