<svg width="83" height="63" viewBox="0 0 83 63" fill="none" xmlns="http://www.w3.org/2000/svg">
<path d="M31.125 0.109375C13.9371 0.109375 0 14.0086 0 31.1497C0 48.2909 13.9371 62.1901 31.125 62.1901C48.3129 62.1901 62.25 48.2909 62.25 31.1497C62.25 14.0086 48.3129 0.109375 31.125 0.109375ZM31.125 55.2922C17.7758 55.2922 6.91667 44.4626 6.91667 31.1497C6.91667 17.8369 17.7758 7.00723 31.125 7.00723C44.4742 7.00723 55.3333 17.8369 55.3333 31.1497C55.3333 44.4626 44.4742 55.2922 31.125 55.2922Z" fill="white"/>
<path d="M34.5833 13.9051H27.6667V32.5638L40.7737 45.6697L45.6846 40.7723L34.5833 29.7357V13.9051Z" fill="white"/>
<path d="M62.2154 1.90282V9.35251C70.4117 13.2153 76.0833 21.5272 76.0833 31.1497C76.0833 40.7723 70.4117 49.0842 62.2154 52.947V60.3967C74.285 56.12 83 44.6351 83 31.1497C83 17.6644 74.285 6.17949 62.2154 1.90282Z" fill="white"/>
</svg>
