<svg width="141" height="125" viewBox="0 0 141 125" fill="none" xmlns="http://www.w3.org/2000/svg">
<path d="M53.8333 37.7944V74.9349L85.1667 92.8862L90.5 85.4581L63.8333 70.6019V37.7944H53.8333Z" fill="white"/>
<path d="M106.633 62.5548C106.967 64.5975 107.167 66.6402 107.167 68.7448C107.167 92.8862 86.5 112.075 60.5 112.075C34.5 112.075 13.8333 92.8862 13.8333 68.7448C13.8333 44.6035 34.5 25.4143 60.5 25.4143C65.1667 25.4143 69.6333 26.0333 73.8333 27.2094V14.4578C69.5667 13.5293 65.1 13.0341 60.5 13.0341C27.1667 13.0341 0.5 37.7944 0.5 68.7448C0.5 99.6953 27.1667 124.456 60.5 124.456C93.8333 124.456 120.5 99.6953 120.5 68.7448C120.5 66.6402 120.367 64.5975 120.1 62.5548H106.633Z" fill="white"/>
<path d="M120.5 19.2242V0.653931H107.167V19.2242H87.1667V31.6043H107.167V50.1746H120.5V31.6043H140.5V19.2242H120.5Z" fill="white"/>
</svg>
