<svg width="69" height="63" viewBox="0 0 69 63" fill="none" xmlns="http://www.w3.org/2000/svg">
<path d="M64.0665 27.1402C63.5835 25.7607 62.2725 24.8639 60.72 24.8639H35.9145C34.3275 24.8639 33.051 25.7607 32.5335 27.1402L27.6 41.3153L27.6345 60.3189C27.6345 61.6295 28.704 62.8022 30.015 62.8022H32.154C33.465 62.8022 34.5 61.4916 34.5 60.181V55.9043H62.1V60.181C62.1 61.4916 63.1695 62.8022 64.4805 62.8022H66.585C67.896 62.8022 68.9655 61.6295 68.9655 60.3189L69 55.5939V41.3153L64.0665 27.1402ZM35.9145 28.3129H60.72L64.2735 38.6597H32.361L35.9145 28.3129ZM34.5 49.0065C32.6025 49.0065 31.05 47.4544 31.05 45.5575C31.05 43.6606 32.6025 42.1086 34.5 42.1086C36.3975 42.1086 37.95 43.6606 37.95 45.5575C37.95 47.4544 36.3975 49.0065 34.5 49.0065ZM62.1 49.0065C60.2025 49.0065 58.65 47.4544 58.65 45.5575C58.65 43.6606 60.2025 42.1086 62.1 42.1086C63.9975 42.1086 65.55 43.6606 65.55 45.5575C65.55 47.4544 63.9975 49.0065 62.1 49.0065Z" fill="white"/>
<path d="M41.4 21.415H44.85V0.721436H17.25V17.9661H0V62.8022H3.45V21.415H20.7V4.17037H41.4V21.415Z" fill="white"/>
<path d="M17.25 28.3129H10.35V35.2107H17.25V28.3129Z" fill="white"/>
<path d="M34.5 7.61929H27.6V14.5172H34.5V7.61929Z" fill="white"/>
<path d="M17.25 42.1086H10.35V49.0065H17.25V42.1086Z" fill="white"/>
<path d="M17.25 55.9043H10.35V62.8022H17.25V55.9043Z" fill="white"/>
</svg>
