<svg width="141" height="146" viewBox="0 0 141 146" fill="none" xmlns="http://www.w3.org/2000/svg">
<path d="M140.5 56.4315H114.25V47.2412C129.3 43.6135 140.5 31.1179 140.5 16.1233H114.25V8.06164C114.25 3.62774 110.313 0 105.5 0H35.5C30.6875 0 26.75 3.62774 26.75 8.06164V16.1233H0.5C0.5 31.1179 11.7 43.6135 26.75 47.2412V56.4315H0.5C0.5 71.4261 11.7 83.9216 26.75 87.5494V96.7397H0.5C0.5 111.734 11.7 124.23 26.75 127.858V137.048C26.75 141.482 30.6875 145.109 35.5 145.109H105.5C110.313 145.109 114.25 141.482 114.25 137.048V127.858C129.3 124.23 140.5 111.734 140.5 96.7397H114.25V87.5494C129.3 83.9216 140.5 71.4261 140.5 56.4315ZM70.5 128.986C60.7875 128.986 53 121.731 53 112.863C53 103.995 60.7875 96.7397 70.5 96.7397C80.125 96.7397 88 103.995 88 112.863C88 121.731 80.2125 128.986 70.5 128.986ZM70.5 88.678C60.7875 88.678 53 81.4225 53 72.5547C53 63.6869 60.7875 56.4315 70.5 56.4315C80.125 56.4315 88 63.6869 88 72.5547C88 81.4225 80.2125 88.678 70.5 88.678ZM70.5 48.3698C60.7875 48.3698 53 41.1144 53 32.2466C53 23.2981 60.7875 16.1233 70.5 16.1233C80.125 16.1233 88 23.2981 88 32.2466C88 41.1144 80.2125 48.3698 70.5 48.3698Z" fill="white"/>
</svg>
