<svg width="141" height="123" viewBox="0 0 141 123" fill="none" xmlns="http://www.w3.org/2000/svg">
<path d="M105.5 0.987366C86.18 0.987366 70.5 15.2685 70.5 32.8649C70.5 50.4613 86.18 64.7425 105.5 64.7425C124.82 64.7425 140.5 50.4613 140.5 32.8649C140.5 15.2685 124.82 0.987366 105.5 0.987366ZM109 39.2404H102V13.7384H109V39.2404ZM109 45.616V51.9915H102V45.616H109ZM21.5 80.6813C21.5 75.3896 26.19 71.118 32 71.118C37.81 71.118 42.5 75.3896 42.5 80.6813C42.5 85.973 37.81 90.2445 32 90.2445C26.19 90.2445 21.5 85.973 21.5 80.6813ZM112.5 77.0472C117.05 76.4734 121.88 75.2621 126.5 73.2219V115.747C126.5 119.253 123.35 122.122 119.5 122.122H112.5C108.65 122.122 105.5 119.253 105.5 115.747V109.371H21.5V115.747C21.5 119.253 18.35 122.122 14.5 122.122H7.5C3.65 122.122 0.5 119.253 0.5 115.747V64.7425L15.06 26.5532C16.53 22.7916 20.38 20.1139 25 20.1139H58.53C57.2 24.1305 56.5 28.4658 56.5 32.8649H27.45L20.17 51.9915H61.19C63.71 56.7731 67.07 61.1085 71.2 64.7425H14.5V96.6201H112.5V77.0472ZM104.87 77.4935C98.64 77.4298 92.69 76.2822 87.16 74.242C85.55 75.9634 84.5 78.1948 84.5 80.6813C84.5 85.973 89.19 90.2445 95 90.2445C100.81 90.2445 105.5 85.973 105.5 80.6813C105.5 79.5337 105.29 78.5136 104.87 77.4935Z" fill="white"/>
</svg>
